<?xml version="1.0" encoding="UTF-8"?>
<svg width="32px" height="35px" viewBox="0 0 32 35" version="1.1" xmlns="http://www.w3.org/2000/svg" xmlns:xlink="http://www.w3.org/1999/xlink">
    <!-- Generator: Sketch 52.2 (67145) - http://www.bohemiancoding.com/sketch -->
    <title>order</title>
    <desc>Created with Sketch.</desc>
    <g id="Symbols" stroke="none" stroke-width="1" fill="none" fill-rule="evenodd">
        <g id="list-item/pdp/_icon/7-copy" transform="translate(0.000000, -1.000000)" fill="#004E59" fill-rule="nonzero">
            <g id="order" transform="translate(0.000000, 1.000000)">
                <path d="M2.7826087,19.9019608 C2.39843478,19.9019608 2.08695652,20.158027 2.08695652,20.4738562 L2.08695652,22.7614379 C2.08695652,23.0772672 2.39843478,23.3333333 2.7826087,23.3333333 C3.16678261,23.3333333 3.47826087,23.0772672 3.47826087,22.7614379 L3.47826087,20.4738562 C3.47826087,20.158027 3.16678261,19.9019608 2.7826087,19.9019608 Z" id="Path"></path>
                <path d="M5.56521739,20.5882353 C5.18104348,20.5882353 4.86956522,20.8443015 4.86956522,21.1601307 L4.86956522,23.4477124 C4.86956522,23.7635417 5.18104348,24.0196078 5.56521739,24.0196078 C5.9493913,24.0196078 6.26086957,23.7635417 6.26086957,23.4477124 L6.26086957,21.1601307 C6.26086957,20.8443015 5.9493913,20.5882353 5.56521739,20.5882353 Z" id="Path"></path>
                <path d="M27.7658695,24.1542034 C27.4821413,23.9763082 27.1059673,24.0591008 26.9256413,24.3390043 C26.7526195,24.6076486 26.8220869,24.9628385 27.0841304,25.1486152 C28.7572825,26.2599724 29.2003369,28.4989751 28.0738695,30.1494975 C26.947326,31.8000949 24.6777283,32.2372517 23.0046522,31.1258945 C21.3315001,30.0145373 20.8883696,27.7755346 22.0149131,26.1250122 C22.6932283,25.1311259 23.8280652,24.5349142 25.0425652,24.5343137 C25.3787174,24.5343137 25.6512609,24.2654442 25.6512609,23.9338235 C25.6512609,23.6022028 25.3787174,23.3333333 25.0425652,23.3333333 C22.3531957,23.3338588 20.1733805,25.4850398 20.1739131,28.1381556 C20.1744457,30.7912714 22.3550218,32.9417018 25.0443913,32.9411764 C27.7337608,32.9406509 29.913576,30.7894699 29.9130434,28.1363541 C29.912739,26.5394255 29.1080434,25.0469822 27.7658695,24.1542034 Z" id="Path"></path>
                <path d="M31.7140135,25.9095534 C31.1290607,23.9186027 29.6897341,22.2771119 27.7722419,21.4141022 L27.7722419,8.30471739 C27.7723174,8.09495241 27.6595681,7.90075852 27.4758034,7.79398525 L14.1934269,0.0825824507 C14.0038511,-0.0275274836 13.7683153,-0.0275274836 13.5788151,0.0825824507 L0.296438532,7.79398525 C0.2837599,7.80110347 0.274703734,7.8117808 0.262628847,7.82008539 C0.250553959,7.82838997 0.239082816,7.83788093 0.227007928,7.84737189 C0.174557634,7.8879309 0.129503209,7.93686865 0.093580418,7.99210899 C0.093580418,7.99626128 0.0863354854,7.99863402 0.0839205078,8.00278631 L0.0839205078,8.00693861 C0.0498844179,8.06722102 0.0267911951,8.13284209 0.015697392,8.20091005 C0.015697392,8.21870559 0.0102636925,8.23531477 0.0084524593,8.25311031 C0.00664122613,8.27090586 3.78617892e-08,8.28692185 3.78617892e-08,8.30471739 L3.78617892e-08,23.727523 C-7.54301867e-05,23.937288 0.112673834,24.1314819 0.296438532,24.2382551 L13.5788151,31.9496579 C13.5947388,31.957221 13.6110399,31.9639685 13.6277184,31.9698262 C13.6441704,31.9779084 13.6611507,31.9850266 13.6784329,31.9911809 C13.8113321,32.0457539 13.9609098,32.0457539 14.093809,31.9911809 C14.1113176,31.9850266 14.1284489,31.9779084 14.1451273,31.9698262 C14.1608247,31.962708 14.1777295,31.9585557 14.1934269,31.9496579 L17.7983846,29.8563087 C18.9076894,33.6317818 22.9219859,35.8089185 26.7647434,34.7190155 C30.6074255,33.6291866 32.8233184,29.6850266 31.7140135,25.9095534 Z M13.886121,1.28200218 L17.0255918,3.10485916 L12.3707226,5.80740925 C12.0834912,5.97416834 11.988175,6.33816138 12.1579027,6.62036907 C12.3276303,6.90257675 12.6981029,6.9962258 12.9853343,6.82946672 L18.213157,3.79651268 L21.3526278,5.61936966 L9.25721274,12.6397121 L6.11774192,10.8168552 L11.1753087,7.88059024 C11.4625401,7.71383115 11.5578562,7.34983811 11.3881286,7.06763043 C11.2184009,6.78542274 10.8479283,6.69177369 10.5606969,6.85853278 L4.93078046,10.1275744 L1.79070589,8.30471739 L13.886121,1.28200218 Z M8.65346835,13.6677014 L8.65346835,17.6283966 L5.53452484,15.8174033 L5.53452484,11.8567082 L8.65346835,13.6677014 Z M17.7471418,26.0461342 C17.5865458,26.6445094 17.5063233,27.2609767 17.5085873,27.8798168 C17.5087382,28.1280647 17.5220206,28.3761642 17.5484344,28.6230774 L14.4898654,30.399666 L14.4898654,28.4730016 C14.4898654,28.1454153 14.2195388,27.8798168 13.886121,27.8798168 C13.5527031,27.8798168 13.2823766,28.1454153 13.2823766,28.4730016 L13.2823766,30.399666 L1.20748881,23.3894076 L1.20748881,9.3445704 L4.32703607,11.1555637 L4.32703607,16.1555186 C4.32680966,16.3655061 4.43948346,16.5599965 4.62347456,16.666844 L8.94990685,19.1789817 C9.04303442,19.2328132 9.1491425,19.2612861 9.25721274,19.2614344 C9.59063058,19.2614344 9.86095713,18.9958359 9.86095713,18.6682496 L9.86095713,14.3682527 L13.2823766,16.3548287 L13.2823766,26.1002623 C13.2823766,26.4278486 13.5527031,26.6934472 13.886121,26.6934472 C14.2195388,26.6934472 14.4898654,26.4278486 14.4898654,26.1002623 L14.4898654,16.3548287 L25.4321286,10.0018192 C25.7192091,9.83506011 25.8143743,9.47121536 25.6446467,9.18915598 C25.474919,8.90709659 25.1045973,8.81359583 24.8175169,8.98035492 L13.886121,15.3274326 L10.444778,13.3289929 L22.540193,6.3062777 L26.5647531,8.64283275 L26.5647531,20.9988728 C22.7112791,20.0003203 18.76347,22.2599837 17.7471418,26.0461342 Z M24.75352,33.8116651 C21.4191152,33.8116651 18.7160761,31.1559025 18.7160761,27.8798168 C18.7160761,24.6037311 21.4191152,21.9479685 24.75352,21.9479685 C28.0879247,21.9479685 30.7909638,24.6037311 30.7909638,27.8798168 C30.7873414,31.1544195 28.0864154,33.8080319 24.75352,33.8116651 Z" id="Shape"></path>
                <path d="M26.944045,26.2566428 C26.7074525,26.0190275 26.3322627,26.0190275 26.0956703,26.2566428 L23.779812,28.6640548 L23.2956371,28.1607388 C23.0530917,27.9171732 22.6666065,27.9241548 22.4323037,28.1762889 C22.2037249,28.4222346 22.2037249,28.8122569 22.4323037,29.0582026 L23.3481453,30.0102506 C23.5865694,30.2580211 23.9730546,30.2580211 24.2114787,30.0102506 L26.9590037,27.1541067 C27.1933065,26.9019727 27.1865904,26.5001291 26.944045,26.2566428 Z" id="Path"></path>
            </g>
        </g>
    </g>
</svg>