<?xml version="1.0" encoding="UTF-8"?>
<svg width="32px" height="33px" viewBox="0 0 32 33" version="1.1" xmlns="http://www.w3.org/2000/svg" xmlns:xlink="http://www.w3.org/1999/xlink">
    <!-- Generator: Sketch 52.2 (67145) - http://www.bohemiancoding.com/sketch -->
    <title>wholesale</title>
    <desc>Created with Sketch.</desc>
    <g id="Symbols" stroke="none" stroke-width="1" fill="none" fill-rule="evenodd">
        <g id="list-item/pdp/_icon/6-copy" transform="translate(0.000000, -2.000000)" fill="#004E59" fill-rule="nonzero">
            <g id="wholesale" transform="translate(0.000000, 2.000000)">
                <path d="M31.1735538,8.40439886 L17.3169458,0.356836631 C16.4991495,-0.118945544 15.5007872,-0.118945544 14.6832533,0.356836631 L0.826382845,8.40439886 C0.25555262,8.73435056 -0.0662119353,9.38800786 0.0114734631,10.0595886 C0.0891588616,10.7314408 0.551334543,11.2878778 1.18121615,11.4690118 C1.32503905,11.5083887 1.4730613,11.5290277 1.62187078,11.5301139 C1.89744401,11.5309286 2.16829311,11.4559766 2.40659831,11.3131334 L15.9999683,3.42117806 L29.5933384,11.3131334 C29.9657558,11.5312002 30.4066729,11.5874142 30.818983,11.4690118 C31.4488646,11.2878778 31.9107777,10.7314408 31.9884631,10.0595886 C32.066411,9.38800786 31.7443841,8.73435056 31.1735538,8.40439886 Z M30.851002,10.1339974 C30.7053418,10.400946 30.3783283,10.4954507 30.1200769,10.3455467 L16.5374673,2.4478885 C16.2049423,2.24910272 15.7949943,2.24910272 15.4624693,2.4478885 L1.8798598,10.3455467 C1.62029611,10.498981 1.28934576,10.4055626 1.14079871,10.1369846 C0.992514103,9.86813508 1.08279713,9.52569142 1.34236083,9.37225712 L15.2099918,1.32442334 C15.7005121,1.03900833 16.2994245,1.03900833 16.7902073,1.32442334 L30.6468153,9.37225712 C30.7722668,9.44449342 30.8643869,9.56588307 30.9027047,9.70899793 C30.9410226,9.85211279 30.9223886,10.0052755 30.851002,10.1339974 Z" id="Shape"></path>
                <path d="M2.92682927,12.3253012 C2.60356324,12.3253012 2.34146341,12.5719601 2.34146341,12.8761818 L2.34146341,32.4491194 C2.34146341,32.7533411 2.60356324,33 2.92682927,33 C3.25009529,33 3.51219512,32.7533411 3.51219512,32.4491194 L3.51219512,12.8761818 C3.51219512,12.5719601 3.25009529,12.3253012 2.92682927,12.3253012 Z" id="Path"></path>
                <path d="M28.6829268,12.3253012 C28.3596608,12.3253012 28.097561,12.5719601 28.097561,12.8761818 L28.097561,32.4491194 C28.097561,32.7533411 28.3596608,33 28.6829268,33 C29.0061929,33 29.2682927,32.7533411 29.2682927,32.4491194 L29.2682927,12.8761818 C29.2682927,12.5719601 29.0061929,12.3253012 28.6829268,12.3253012 Z" id="Path"></path>
                <path d="M26.7781649,11.5301205 L5.22183508,11.5301205 C4.92422508,11.5301205 4.68292683,11.7766133 4.68292683,12.0806302 L4.68292683,32.4494903 C4.68292683,32.7535071 4.92422508,33 5.22183508,33 C5.51944507,33 5.76074332,32.7535071 5.76074332,32.4494903 L5.76074332,14.8331789 L26.2392567,14.8331789 L26.2392567,32.4494903 C26.2392567,32.7535071 26.4805549,33 26.7781649,33 C27.0757749,33 27.3170732,32.7535071 27.3170732,32.4494903 L27.3170732,12.0806302 C27.3170732,11.7766133 27.0757749,11.5301205 26.7781649,11.5301205 Z M5.76074332,13.7321594 L5.76074332,12.6311399 L26.2392567,12.6311399 L26.2392567,13.7321594 L5.76074332,13.7321594 Z" id="Shape"></path>
                <path d="M20.1409214,8.21686747 C20.4402418,8.21686747 20.6829268,7.97950397 20.6829268,7.68674699 C20.6829268,7.39399001 20.4402418,7.15662651 20.1409214,7.15662651 L11.4688347,7.15662651 C11.1695143,7.15662651 10.9268293,7.39399001 10.9268293,7.68674699 L10.9268293,9.80722892 C10.9268293,10.0999859 11.1695143,10.3373494 11.4688347,10.3373494 L20.1409214,10.3373494 C20.4402418,10.3373494 20.6829268,10.0999859 20.6829268,9.80722892 C20.6829268,9.51447193 20.4402418,9.27710843 20.1409214,9.27710843 L12.0108401,9.27710843 L12.0108401,8.21686747 L20.1409214,8.21686747 Z" id="Path"></path>
                <path d="M24.4361549,29.739759 L23.8967001,29.739759 L23.8967001,23.7626506 C23.8967001,23.4625747 23.6551572,23.2192771 23.3572453,23.2192771 L21.7388809,23.2192771 L21.7388809,17.2421687 C21.7388809,16.9420928 21.4973379,16.6987952 21.1994261,16.6987952 L13.6470588,16.6987952 C13.349147,16.6987952 13.107604,16.9420928 13.107604,17.2421687 L13.107604,19.9590361 L10.41033,19.9590361 C10.1124182,19.9590361 9.87087518,20.2023337 9.87087518,20.5024096 L9.87087518,23.2192771 L8.25251076,23.2192771 C7.95459893,23.2192771 7.71305595,23.4625747 7.71305595,23.7626506 L7.71305595,29.739759 L7.17360115,29.739759 C6.87568932,29.739759 6.63414634,29.9830566 6.63414634,30.2831325 L6.63414634,32.4566265 C6.63414634,32.7567024 6.87568932,33 7.17360115,33 C7.47151297,33 7.71305595,32.7567024 7.71305595,32.4566265 L7.71305595,30.826506 L9.33142037,30.826506 L9.33142037,32.4566265 C9.33142037,32.7567024 9.57296335,33 9.87087518,33 C10.168787,33 10.41033,32.7567024 10.41033,32.4566265 L10.41033,30.826506 L11.4892396,30.826506 L11.4892396,32.4566265 C11.4892396,32.7567024 11.7307826,33 12.0286944,33 C12.3266062,33 12.5681492,32.7567024 12.5681492,32.4566265 L12.5681492,30.826506 L14.1865136,30.826506 L14.1865136,32.4566265 C14.1865136,32.7567024 14.4280566,33 14.7259684,33 C15.0238803,33 15.2654232,32.7567024 15.2654232,32.4566265 L15.2654232,30.826506 L16.3443329,30.826506 L16.3443329,32.4566265 C16.3443329,32.7567024 16.5858758,33 16.8837877,33 C17.1816995,33 17.4232425,32.7567024 17.4232425,32.4566265 L17.4232425,30.826506 L19.0416069,30.826506 L19.0416069,32.4566265 C19.0416069,32.7567024 19.2831499,33 19.5810617,33 C19.8789735,33 20.1205165,32.7567024 20.1205165,32.4566265 L20.1205165,30.826506 L21.1994261,30.826506 L21.1994261,32.4566265 C21.1994261,32.7567024 21.4409691,33 21.7388809,33 C22.0367927,33 22.2783357,32.7567024 22.2783357,32.4566265 L22.2783357,30.826506 L23.8967001,30.826506 L23.8967001,32.4566265 C23.8967001,32.7567024 24.1382431,33 24.4361549,33 C24.7340668,33 24.9756098,32.7567024 24.9756098,32.4566265 L24.9756098,30.2831325 C24.9756098,29.9830566 24.7340668,29.739759 24.4361549,29.739759 Z M19.0416069,24.3060241 L20.1205165,24.3060241 L20.1205165,25.3927711 L19.0416069,25.3927711 L19.0416069,24.3060241 Z M17.9626973,17.7855422 L17.9626973,18.8722892 L16.8837877,18.8722892 L16.8837877,17.7855422 L17.9626973,17.7855422 Z M14.1865136,17.7855422 L15.804878,17.7855422 L15.804878,19.4156627 C15.804878,19.7157386 16.046421,19.9590361 16.3443329,19.9590361 L18.5021521,19.9590361 C18.8000639,19.9590361 19.0416069,19.7157386 19.0416069,19.4156627 L19.0416069,17.7855422 L20.6599713,17.7855422 L20.6599713,23.2192771 L14.1865136,23.2192771 L14.1865136,17.7855422 Z M11.4892396,24.3060241 L12.5681492,24.3060241 L12.5681492,25.3927711 L11.4892396,25.3927711 L11.4892396,24.3060241 Z M10.9497848,21.0457831 L13.107604,21.0457831 L13.107604,23.2192771 L10.9497848,23.2192771 L10.9497848,21.0457831 Z M8.79196557,29.739759 L8.79196557,24.3060241 L10.41033,24.3060241 L10.41033,25.9361446 C10.41033,26.2362205 10.651873,26.4795181 10.9497848,26.4795181 L13.107604,26.4795181 C13.4055158,26.4795181 13.6470588,26.2362205 13.6470588,25.9361446 L13.6470588,24.3060241 L15.2654232,24.3060241 L15.2654232,29.739759 L8.79196557,29.739759 Z M16.3443329,29.739759 L16.3443329,24.3060241 L17.9626973,24.3060241 L17.9626973,25.9361446 C17.9626973,26.2362205 18.2042403,26.4795181 18.5021521,26.4795181 L20.6599713,26.4795181 C20.9578831,26.4795181 21.1994261,26.2362205 21.1994261,25.9361446 L21.1994261,24.3060241 L22.8177905,24.3060241 L22.8177905,29.739759 L16.3443329,29.739759 Z" id="Shape"></path>
            </g>
        </g>
    </g>
</svg>