<?xml version="1.0" encoding="UTF-8"?>
<svg width="32px" height="32px" viewBox="0 0 32 32" version="1.1" xmlns="http://www.w3.org/2000/svg" xmlns:xlink="http://www.w3.org/1999/xlink">
    <!-- Generator: Sketch 52.2 (67145) - http://www.bohemiancoding.com/sketch -->
    <title>world</title>
    <desc>Created with Sketch.</desc>
    <g id="Symbols" stroke="none" stroke-width="1" fill="none" fill-rule="evenodd">
        <g id="list-item/pdp/_icon/5-copy" transform="translate(0.000000, -2.000000)" fill="#004E59" fill-rule="nonzero">
            <g id="world" transform="translate(0.000000, 2.000000)">
                <path d="M16,4.26975 C9.23625,4.26975 3.7333125,9.7726875 3.7333125,16.5364375 C3.7333125,23.3001875 9.23625,28.8030625 16,28.8030625 C22.76375,28.8030625 28.2666875,23.300125 28.2666875,16.536375 C28.2666875,9.772625 22.76375,4.26975 16,4.26975 Z M16,27.736375 C9.8245625,27.736375 4.8,22.712375 4.8,16.536375 C4.8,10.360375 9.8245625,5.336375 16,5.336375 C22.176,5.336375 27.2,10.360375 27.2,16.536375 C27.2,22.712375 22.176,27.736375 16,27.736375 Z" id="Shape"></path>
                <path d="M21.14775,5.4030625 C21.0986875,5.3806875 21.0469375,5.3651875 20.993625,5.35825 L20.8704375,5.3416875 C20.6805625,5.3145 20.4923125,5.3939375 20.3765625,5.5459375 C20.2603125,5.6979375 20.2341875,5.8995625 20.30775,6.0760625 C20.674125,6.9518125 21.1104375,8.7219375 20.5525625,9.1283125 L19.3163125,9.6226875 C18.3803125,9.9970625 17.7243125,10.8568125 17.6043125,11.869625 L17.5963125,11.9309375 C17.567,12.1431875 17.393625,12.2008125 17.3205625,12.21575 C17.1883125,12.2424375 17.01175,12.2104375 16.9104375,12.0408125 L16.3808125,11.158125 C16.186125,10.8333125 15.8266875,10.64025 15.453375,10.6631875 C15.077375,10.682375 14.745125,10.905875 14.585125,11.2471875 C14.108875,12.26425 13.511,13.732 13.3659375,14.9474375 C13.321125,15.3245 13.3883125,15.7053125 13.5600625,16.0493125 L14.175,17.2791875 C14.393125,17.714375 14.7275625,18.0834375 15.143,18.345875 C15.5259375,18.5875 16.2358125,19.0749375 16.6880625,19.6210625 C17.20275,20.2434375 17.8960625,20.645625 18.640625,20.765625 C18.61075,21.7645625 18.676375,23.4066875 19.356375,24.132 C19.59425,24.3853125 19.892375,24.5245625 20.2225,24.53575 C20.28225,24.54375 20.3873125,24.5544375 20.5233125,24.5544375 C20.9190625,24.5544375 21.579875,24.4648125 22.184125,23.965625 C23.02575,23.2701875 23.4571875,22.0466875 23.4668125,20.3288125 L24.2305625,16.8909375 L24.5206875,17.374125 C24.7564375,17.7671875 25.1505625,18.0434375 25.6006875,18.132 C26.0508125,18.2205625 26.520125,18.1128125 26.887625,17.837625 L28.0535,16.9629375 C28.187875,16.862125 28.2668125,16.70425 28.2668125,16.53625 C28.2666875,11.7753125 25.472,7.4051875 21.14775,5.4030625 Z M26.2474375,16.984375 C26.1194375,17.0798125 25.962125,17.1155625 25.8058125,17.0851875 C25.649,17.0548125 25.51725,16.962 25.435125,16.8249375 L24.8820625,15.9028125 C24.6996875,15.59825 24.3561875,15.43825 24.0041875,15.495375 C23.6538125,15.5524375 23.3775,15.81325 23.3001875,16.1599375 L22.41275,20.1540625 C22.4041875,20.1919375 22.3999375,20.230875 22.3999375,20.2698125 C22.3999375,21.654875 22.094875,22.64475 21.5178125,23.13275 C20.990375,23.578625 20.387125,23.4820625 20.3679375,23.4794375 C20.299125,23.466625 20.246875,23.522125 20.134875,23.402625 C19.802625,23.0479375 19.634625,21.8100625 19.726375,20.3914375 C19.7370625,20.222875 19.67675,20.054875 19.5610625,19.9316875 C19.4448125,19.8074375 19.2794375,19.7365 19.1088125,19.7365 C18.5109375,19.7365 17.928,19.446875 17.509375,18.9418125 C16.9904375,18.3140625 16.245375,17.78075 15.7120625,17.4441875 C15.461375,17.2858125 15.2598125,17.0639375 15.129125,16.8025625 L14.5141875,15.5726875 C14.4358125,15.415875 14.404875,15.2430625 14.425125,15.0735 C14.5558125,13.9823125 15.1456875,12.5764375 15.5125625,11.783375 L15.9963125,12.58925 C16.3163125,13.1225625 16.9195,13.3844375 17.535,13.2601875 C18.1318125,13.1380625 18.57125,12.6735 18.653375,12.075625 L18.6645625,11.991375 C18.737625,11.3700625 19.13925,10.8420625 19.7125625,10.6126875 L20.9984375,10.0985625 C21.025125,10.087875 21.05175,10.0745625 21.0768125,10.059625 C22.090125,9.4441875 21.9589375,7.9710625 21.6928125,6.8926875 C24.99575,8.8484375 27.1045625,12.403625 27.1968125,16.2724375 L26.2474375,16.984375 Z" id="Shape"></path>
                <path d="M13.4853125,23.93425 L13.162125,23.6115625 C12.770125,23.219 12.3125,22.9096875 11.8026875,22.691 L10.157875,21.9859375 C9.4949375,21.7016875 9.0666875,21.0520625 9.0666875,20.3305 L9.0666875,19.5278125 C9.0666875,19.036625 8.825625,18.576875 8.421875,18.296875 C8.018125,18.0174375 7.5024375,17.9539375 7.0426875,18.1256875 L4.481625,19.0856875 C4.2245625,19.18225 4.0821875,19.4579375 4.153625,19.7235625 C5.354125,24.1945 9.061375,27.6659375 13.5984375,28.56675 C13.633625,28.5736875 13.6688125,28.576875 13.703,28.576875 C13.937125,28.576875 14.149375,28.42275 14.2160625,28.1901875 L14.41125,27.5064375 C14.773875,26.2366875 14.4191875,24.867625 13.4853125,23.93425 Z M13.385625,27.2131875 L13.328,27.41375 C9.5610625,26.4884375 6.4906875,23.612125 5.32,19.9108125 L7.4170625,19.1246875 C7.552,19.0735 7.6965,19.091625 7.814375,19.17375 C7.93225,19.255375 8,19.3844375 8,19.527875 L8,20.3305625 C8,21.479375 8.682125,22.514 9.737625,22.9663125 L11.3824375,23.671375 C11.7675,23.8366875 12.1125625,24.0703125 12.4080625,24.36575 L12.73125,24.6884375 C13.3909375,25.348125 13.642125,26.3155625 13.385625,27.2131875 Z" id="Shape"></path>
                <path d="M10.4090625,6.119875 C10.242125,5.914 9.9493125,5.86225 9.7215625,5.99825 C6.1994375,8.1011875 3.9674375,11.7950625 3.7514375,15.8788125 C3.7418125,16.059625 3.8245,16.2329375 3.9711875,16.3390625 C4.0634375,16.40625 4.1728125,16.440375 4.28375,16.440375 C4.349375,16.440375 4.4149375,16.428125 4.4768125,16.404625 L7.7850625,15.099 C8.577625,14.7816875 8.9866875,13.8995625 8.7168125,13.0899375 C8.6511875,12.8920625 8.701875,12.6776875 8.8490625,12.5299375 L10.386125,10.992875 C10.9109375,10.468625 11.2,9.771 11.2,9.028625 L11.2,8.33475 C11.2,7.5348125 10.9189375,6.748125 10.4090625,6.119875 Z M10.1333125,9.028125 C10.1333125,9.48575 9.9551875,9.9150625 9.6314375,10.23825 L8.094375,11.7753125 C7.6596875,12.2105 7.510375,12.8430625 7.7050625,13.4265 C7.7968125,13.7011875 7.657625,14.000375 7.3893125,14.1075625 L4.89225,15.0974375 C5.306625,11.8713125 7.106125,8.984375 9.8405,7.18225 C10.0314375,7.5369375 10.1333125,7.9336875 10.1333125,8.33425 L10.1333125,9.028125 Z" id="Shape"></path>
                <path d="M16,0.0030625 C15.4485625,0.0030625 14.89225,0.0313125 14.3466875,0.0873125 C14.053875,0.1171875 13.8405625,0.3795625 13.8704375,0.672375 C13.8986875,0.9470625 14.1306875,1.1513125 14.4005625,1.1513125 C14.4186875,1.1513125 14.437375,1.15025 14.4555,1.148125 C14.9648125,1.096375 15.4843125,1.06975 16.0000625,1.06975 C16.2944375,1.06975 16.533375,0.8308125 16.533375,0.5364375 C16.533375,0.2420625 16.294375,0.0030625 16,0.0030625 Z" id="Path"></path>
                <path d="M1.2768125,18.5129375 C1.137625,17.6894375 1.0666875,16.8451875 1.0666875,16.0030625 C1.0666875,15.8249375 1.069875,15.6473125 1.0763125,15.46975 C1.0864375,15.175375 0.8560625,14.9289375 0.561625,14.9183125 C0.269875,14.902875 0.0208125,15.1385625 0.0101875,15.433 C0.0031875,15.62225 0,15.812125 0,16.0030625 C0,16.904375 0.07575,17.8089375 0.2245625,18.6910625 C0.2688125,18.9513125 0.4944375,19.1353125 0.749875,19.1353125 C0.77975,19.1353125 0.809625,19.1331875 0.84,19.127875 C1.130125,19.0788125 1.325875,18.8035625 1.2768125,18.5129375 Z" id="Path"></path>
                <path d="M3.489125,24.159875 C2.93225,23.3075625 2.461875,22.396125 2.0911875,21.4505 C1.9834375,21.176375 1.674125,21.040875 1.4,21.148625 C1.125875,21.2558125 0.990375,21.5651875 1.098125,21.8398125 C1.4954375,22.853125 1.9994375,23.8296875 2.59575,24.74275 C2.698125,24.8995625 2.8688125,24.984375 3.0426875,24.984375 C3.1429375,24.984375 3.2443125,24.956125 3.3344375,24.898 C3.5808125,24.7369375 3.6501875,24.40625 3.489125,24.159875 Z" id="Path"></path>
                <path d="M2.2634375,8.868125 C1.9978125,8.74175 1.6794375,8.85425 1.5525,9.119875 C1.082625,10.103875 0.7135625,11.139625 0.4554375,12.19775 C0.385625,12.484125 0.5605625,12.7726875 0.8469375,12.8425 C0.889625,12.852625 0.93225,12.8574375 0.973875,12.8574375 C1.213875,12.8574375 1.432,12.6936875 1.49175,12.4505 C1.7328125,11.4633125 2.0768125,10.496875 2.5151875,9.5790625 C2.642125,9.3129375 2.5295625,8.9950625 2.2634375,8.868125 Z" id="Path"></path>
                <path d="M6.23575,3.9960625 C6.042125,3.7741875 5.705625,3.75075 5.4831875,3.944875 C4.662375,4.6616875 3.912,5.464875 3.2533125,6.3315625 C3.0751875,6.5656875 3.1205,6.900625 3.3551875,7.07875 C3.4516875,7.152375 3.5648125,7.1875625 3.6773125,7.1875625 C3.838375,7.1875625 3.9973125,7.1145 4.102375,6.976875 C4.7173125,6.1673125 5.418125,5.4174375 6.1845625,4.748625 C6.4064375,4.555 6.429375,4.2179375 6.23575,3.9960625 Z" id="Path"></path>
                <path d="M13.397875,30.7113125 C12.39575,30.53475 11.4090625,30.25475 10.466125,29.87825 C10.192,29.7689375 9.882125,29.9016875 9.7728125,30.175875 C9.6635,30.4489375 9.7968125,30.7593125 10.0704375,30.8686875 C11.081125,31.2724375 12.1386875,31.5726875 13.2128125,31.7615 C13.24375,31.7668125 13.2746875,31.7695 13.305625,31.7695 C13.56,31.7695 13.785125,31.587125 13.8309375,31.329 C13.881625,31.0388125 13.688,30.7625 13.397875,30.7113125 Z" id="Path"></path>
                <path d="M20.1050625,30.9289375 C20.0368125,30.642 19.74825,30.466 19.4629375,30.5331875 C18.4773125,30.7673125 17.46025,30.9011875 16.4395,30.9305 C16.145125,30.9385 15.913125,31.184375 15.921625,31.47875 C15.9301875,31.7678125 16.1669375,31.996625 16.4544375,31.996625 C16.45925,31.996625 16.4645625,31.996625 16.4704375,31.996125 C17.56375,31.9646875 18.653375,31.82175 19.709375,31.5710625 C19.99575,31.5028125 20.1728125,31.2153125 20.1050625,30.9289375 Z" id="Path"></path>
                <path d="M11.8149375,1.0995625 C11.725875,0.819 11.425625,0.664375 11.1450625,0.752875 C10.1071875,1.083 9.0991875,1.5225 8.1493125,2.0585 C7.89275,2.2035625 7.802625,2.528875 7.9471875,2.7854375 C8.0453125,2.95875 8.226125,3.056375 8.41225,3.056375 C8.5008125,3.056375 8.5909375,3.034 8.6735625,2.9875625 C9.5594375,2.4873125 10.50025,2.0771875 11.46825,1.7694375 C11.7488125,1.680375 11.904,1.380125 11.8149375,1.0995625 Z" id="Path"></path>
                <path d="M7.7653125,28.46225 C6.918375,27.9016875 6.1253125,27.2510625 5.4074375,26.5289375 C5.2,26.320375 4.8618125,26.3188125 4.6533125,26.5268125 C4.44475,26.7348125 4.4436875,27.0724375 4.6511875,27.2815 C5.42025,28.0548125 6.269875,28.751875 7.1765,29.3524375 C7.2671875,29.4121875 7.3695625,29.441 7.470375,29.441 C7.6431875,29.441 7.81275,29.35725 7.9151875,29.2015625 C8.077875,28.956125 8.0106875,28.6249375 7.7653125,28.46225 Z" id="Path"></path>
                <path d="M24.4565625,28.96575 C24.3035,28.714 23.9755,28.6329375 23.72375,28.786 C23.285375,29.051625 22.82775,29.2969375 22.36375,29.516125 C22.097625,29.642 21.9829375,29.9593125 22.1088125,30.226 C22.2,30.4190625 22.3915,30.532125 22.5915,30.532125 C22.66775,30.532125 22.745125,30.5155625 22.81925,30.4809375 C23.316875,30.24625 23.807,29.9833125 24.276875,29.6985625 C24.5285625,29.5454375 24.6090625,29.2174375 24.4565625,28.96575 Z" id="Path"></path>
                <path d="M31.8875,23.6755625 C31.7061875,23.4425 31.3706875,23.400875 31.13925,23.5816875 L26.33925,27.315 C26.209625,27.4163125 26.133375,27.5715625 26.133375,27.7363125 L26.133375,29.3363125 C26.133375,29.6306875 26.3723125,29.869625 26.6666875,29.869625 C26.9610625,29.869625 27.2,29.6306875 27.2,29.3363125 L27.2,27.997125 L31.793625,24.4238125 C32.026125,24.2430625 32.06825,23.908125 31.8875,23.6755625 Z" id="Path"></path>
                <path d="M26.83575,27.23025 L25.23575,26.6969375 C24.9551875,26.6025625 24.653875,26.7550625 24.5610625,27.034 C24.46775,27.3134375 24.6186875,27.6153125 24.898125,27.7086875 L26.498125,28.242 C26.554125,28.2606875 26.6111875,28.26975 26.6666875,28.26975 C26.890125,28.26975 27.098125,28.1284375 27.1728125,27.9049375 C27.266125,27.6254375 27.1151875,27.3235625 26.83575,27.23025 Z" id="Path"></path>
                <path d="M30.8949375,28.0708125 L29.82825,25.404125 C29.7850625,25.295875 29.7071875,25.2046875 29.6074375,25.1449375 L26.94075,23.5449375 C26.6879375,23.3935 26.3605,23.4750625 26.209,23.727875 C26.0575,23.9806875 26.139125,24.308125 26.3919375,24.459625 L28.9045,25.967375 L29.9045,28.467625 C29.98825,28.6761875 30.18825,28.8030625 30.3999375,28.8030625 C30.4660625,28.8030625 30.53325,28.7908125 30.5978125,28.764125 C30.8715,28.6548125 31.00425,28.344375 30.8949375,28.0708125 Z" id="Path"></path>
            </g>
        </g>
    </g>
</svg>